<svg xmlns="http://www.w3.org/2000/svg" viewBox="0 0 512 512">
  <defs>
    <linearGradient id="bg" x1="0" y1="0" x2="1" y2="1">
      <stop offset="0" stop-color="#0f2a43"/>
      <stop offset="1" stop-color="#1b6ca8"/>
    </linearGradient>
  </defs>
  <rect width="512" height="512" rx="112" fill="url(#bg)"/>
  <path d="M102 122h40v268h-40zM370 122h40v268h-40z" fill="#e9f4ff"/>
  <path d="M176 170h160c18 0 32 14 32 32v106c0 18-14 32-32 32h-88l-56 42v-42h-16c-18 0-32-14-32-32V202c0-18 14-32 32-32z" fill="#ffffff"/>
  <circle cx="216" cy="255" r="16" fill="#1b6ca8"/>
  <circle cx="256" cy="255" r="16" fill="#1b6ca8"/>
  <circle cx="296" cy="255" r="16" fill="#1b6ca8"/>
</svg>
